HIERARCHY
ROOT Hips
{
	OFFSET -3.958830 18.904000 13.208200
	CHANNELS 6 Xposition Yposition Zposition Zrotation Yrotation Xrotation 
	JOINT LHipJoint
	{
		OFFSET 0.000000 0.000000 0.000000
		CHANNELS 3 Zrotation Yrotation Xrotation
		JOINT LeftUpLeg
		{
			OFFSET 1.800000 -1.400000 0.085000
			CHANNELS 3 Zrotation Yrotation Xrotation
			JOINT LeftLeg
			{
				OFFSET 2.215000 -6.000000 0.000000
				CHANNELS 3 Zrotation Yrotation Xrotation
				JOINT LeftFoot
				{
					OFFSET 2.500000 -6.900000 0.000000
					CHANNELS 3 Zrotation Yrotation Xrotation
					JOINT LeftToeBase
					{
						OFFSET 0.200000 -0.500000 1.950000
						CHANNELS 3 Zrotation Yrotation Xrotation
						End Site
						{
							OFFSET 0.000000 0.000000 0.000000
						}
					}
				}
			}
		}
	}
	JOINT RHipJoint
	{
		OFFSET 0.000000 0.000000 0.000000
		CHANNELS 3 Zrotation Yrotation Xrotation
		JOINT RightUpLeg
		{
			OFFSET -1.800000 -1.400000 0.085000
			CHANNELS 3 Zrotation Yrotation Xrotation
			JOINT RightLeg
			{
				OFFSET -2.215000 -6.000000 0.000000
				CHANNELS 3 Zrotation Yrotation Xrotation
				JOINT RightFoot
				{
					OFFSET -2.500000 -6.900000 0.000000
					CHANNELS 3 Zrotation Yrotation Xrotation
					JOINT RightToeBase
					{
						OFFSET -0.200000 -0.500000 1.950000
						CHANNELS 3 Zrotation Yrotation Xrotation
						End Site
						{
							OFFSET 0.000000 0.000000 0.000000
						}
					}
				}
			}
		}
	}
	JOINT LowerBack
	{
		OFFSET 0.000000 0.000000 0.000000
		CHANNELS 3 Zrotation Yrotation Xrotation
		JOINT Spine
		{
			OFFSET -0.087000 1.940000 -0.288900
			CHANNELS 3 Zrotation Yrotation Xrotation
			JOINT Spine1
			{
				OFFSET 0.000000 1.950000 0.060000
				CHANNELS 3 Zrotation Yrotation Xrotation
				JOINT Neck
				{
					OFFSET 0.000000 0.000000 0.000000
					CHANNELS 3 Zrotation Yrotation Xrotation
					JOINT Neck1
					{
						OFFSET 0.000000 1.600000 0.340000
						CHANNELS 3 Zrotation Yrotation Xrotation
						JOINT Head
						{
							OFFSET 0.000000 1.667000 -0.240000
							CHANNELS 3 Zrotation Yrotation Xrotation
							End Site
							{
								OFFSET 0.000000 0.000000 0.000000
							}
						}
					}
				}
				JOINT LeftShoulder
				{
					OFFSET 0.000000 0.000000 0.000000
					CHANNELS 3 Zrotation Yrotation Xrotation
					JOINT LeftArm
					{
						OFFSET 2.700000 1.550000 -0.730000
						CHANNELS 3 Zrotation Yrotation Xrotation
						JOINT LeftForeArm
						{
							OFFSET 5.450000 0.000000 0.000000
							CHANNELS 3 Zrotation Yrotation Xrotation
							JOINT LeftHand
							{
								OFFSET 3.450000 0.000000 0.000000
								CHANNELS 3 Zrotation Yrotation Xrotation
								JOINT LeftHandIndex1
								{
									OFFSET 0.750000 0.000000 0.000000
									CHANNELS 3 Zrotation Yrotation Xrotation
									End Site
									{
										OFFSET 0.000000 0.000000 0.000000
									}
								}
							}
						}
					}
				}
				JOINT RightShoulder
				{
					OFFSET 0.000000 0.000000 0.000000
					CHANNELS 3 Zrotation Yrotation Xrotation
					JOINT RightArm
					{
						OFFSET -2.700000 1.550000 -0.730000
						CHANNELS 3 Zrotation Yrotation Xrotation
						JOINT RightForeArm
						{
							OFFSET -5.450000 0.000000 0.000000
							CHANNELS 3 Zrotation Yrotation Xrotation
							JOINT RightHand
							{
								OFFSET -3.450000 0.000000 0.000000
								CHANNELS 3 Zrotation Yrotation Xrotation
								JOINT RightHandIndex1
								{
									OFFSET -0.750000 0.000000 0.000000
									CHANNELS 3 Zrotation Yrotation Xrotation
									End Site
									{
										OFFSET 0.000000 0.000000 0.000000
									}
								}
							}
						}
					}
				}
			}
		}
	}
}
MOTION
Frames: 5
Frame Time: 0.016667
3.961500 12.622160 10.024250 76.370890 82.024836 82.360494 -16.831700 5.763153 9.751812 41.429728 -11.295061 -107.170564 -35.451224 44.243371 73.912137 3.448288 18.565432 -1.076302 0.260740 0.176920 0.306610 17.914291 -7.697511 1.852674 -45.039196 7.307841 -4.846484 18.520435 -39.521120 73.934890 -2.833968 -13.877610 -0.265147 -0.030210 -0.468430 -0.006970 -1.795224 -5.775270 -11.850828 3.751644 6.233057 58.345564 -0.316000 12.591546 -11.599662 5.253671 -5.198708 -16.233735 -13.593952 -13.780995 43.948891 6.176520 -18.163500 -27.627310 -42.496130 -16.564736 2.323945 -48.179532 14.469392 -12.620478 -13.827940 -14.433180 -0.551797 -2.977385 2.874566 0.561170 -0.541760 0.429080 -0.089170 34.721169 29.935542 13.639682 20.234457 6.490749 -3.674735 -1.979560 4.382700 0.318068 2.903145 -0.689931 0.086270 0.070910 -0.088510 -0.085150 
3.963060 12.508270 10.011470 87.719864 82.370437 95.164608 -16.462842 5.655653 9.767662 43.162612 -10.258191 -110.419446 -39.614160 45.429445 71.549314 3.499373 18.377609 -0.990613 0.245680 0.166230 0.265940 18.306668 -7.508160 1.999287 -46.029879 7.515561 -4.777398 21.093255 -41.356060 73.063749 -2.848800 -13.912861 -0.260694 -0.035550 -0.439220 -0.008580 -1.421180 -6.158790 -11.929344 4.607401 5.086618 60.742195 0.487519 12.091079 -10.450104 5.440578 -7.000831 -16.676218 -16.622191 -13.605688 42.060240 6.627350 -18.961270 -27.723210 -40.983710 -17.372894 2.587614 -47.231806 12.488604 -12.250026 -16.352284 -16.638595 -0.135134 -2.977594 2.930851 0.530140 -0.531090 0.401570 -0.076490 33.369763 31.925957 14.192201 16.490073 8.465296 -3.604192 -1.044155 4.720362 0.291265 2.917489 -0.643763 0.091320 0.072390 -0.079720 -0.059920 
3.994510 12.399650 9.968420 88.070681 82.362871 96.463426 -16.441376 5.606113 9.748331 44.598116 -8.896542 -112.562704 -43.823823 47.129960 69.585760 3.560402 18.202612 -0.909225 0.253780 0.183360 0.240860 18.354022 -7.333874 2.110586 -47.744337 7.932519 -5.294387 22.300155 -42.259982 72.967487 -2.859019 -13.925689 -0.256621 -0.029320 -0.428630 -0.014460 -1.333800 -6.647470 -11.996523 5.239744 4.236354 63.062888 1.715113 11.566170 -9.629842 5.701967 -9.428169 -17.011929 -21.078696 -12.293839 41.133201 6.742780 -19.329260 -28.273790 -39.905222 -17.459389 2.641841 -47.283248 11.424887 -12.272381 -18.936238 -18.490642 0.261487 -2.959541 2.971628 0.514410 -0.541090 0.394100 -0.057280 32.479759 33.728823 14.456385 12.931503 10.530246 -3.431234 -0.500489 3.584479 0.238082 2.986948 -0.559475 0.102890 0.081130 -0.083380 -0.035140 
4.003820 12.306150 9.945680 93.567159 81.962159 103.311930 -16.249111 5.598599 9.763669 46.055465 -7.547698 -114.499158 -49.757457 47.841821 65.022831 3.496945 17.652303 -0.772362 0.265200 0.198670 0.245950 18.580085 -7.123695 2.203000 -49.130786 7.615673 -6.351172 22.704512 -42.981418 73.336997 -2.881174 -13.996049 -0.272810 -0.013140 -0.425270 -0.017320 -1.118572 -6.766548 -12.069102 5.724418 3.361409 64.250463 2.083401 10.859912 -8.227957 5.930138 -9.910225 -17.460100 -22.184802 -11.712169 41.296962 6.024940 -19.173410 -28.052980 -38.981118 -18.725140 3.008905 -46.324103 10.011716 -11.983463 -20.893083 -20.100961 0.689591 -2.953495 2.992319 0.513070 -0.537450 0.391920 -0.054610 31.210956 35.358379 14.456282 11.383609 12.235664 -3.326277 -0.258014 3.112804 0.190864 3.011900 -0.512839 0.098880 0.093950 -0.082380 -0.035640 
4.049010 12.205100 9.921100 93.924787 81.595232 104.141454 -16.243372 5.528974 9.781271 47.733268 -5.611065 -115.762028 -56.749523 49.338870 60.498508 3.484809 17.068848 -0.607353 0.274380 0.216690 0.234420 18.620980 -6.943404 2.301499 -51.234526 7.747977 -6.340025 23.915321 -44.152937 73.279512 -2.896702 -13.984213 -0.260766 -0.008700 -0.424980 -0.021800 -1.068791 -7.031226 -12.153744 6.054849 2.574350 66.234403 2.292935 10.459050 -7.951569 6.239796 -10.955598 -17.945039 -24.667301 -10.338958 41.912186 6.099850 -19.212810 -27.695410 -39.074047 -19.353742 3.188108 -45.449327 9.734262 -12.041776 -22.107924 -22.150192 1.203516 -2.914392 3.033623 0.502870 -0.544860 0.392990 -0.042630 31.090736 36.665498 14.574271 9.777633 13.197675 -3.300982 0.354005 2.725747 0.159653 3.045484 -0.466949 0.111340 0.094570 -0.089290 -0.020840 
